<svg width="820" height="810" viewBox="0 0 820 810" fill="none" xmlns="http://www.w3.org/2000/svg">
<g clip-path="url(#clip0_44_244)">
<path d="M436.5 379H770.5" stroke="#DD014B" stroke-width="21" stroke-linecap="round" stroke-linejoin="round"/>
<path d="M525 457.5L486 406H532.5L586 451L648.5 406H696.5L625 487H536L525 457.5Z" stroke="#DD014B" stroke-width="21" stroke-linecap="round" stroke-linejoin="round"/>
<path d="M535 633V656.397L516 692" stroke="#DD014B" stroke-width="20" stroke-linecap="round" stroke-linejoin="round"/>
<path d="M484 565.5C484 586.667 466.636 604 445 604C423.364 604 406 586.667 406 565.5C406 544.333 423.364 527 445 527C466.636 527 484 544.333 484 565.5Z" stroke="#DD014B" stroke-width="20"/>
<path d="M269.5 645.179C269.5 658.184 258.828 668.857 245.5 668.857C232.172 668.857 221.5 658.184 221.5 645.179C221.5 632.174 232.172 621.5 245.5 621.5C258.828 621.5 269.5 632.174 269.5 645.179Z" stroke="white" stroke-width="15"/>
<path d="M589 710.5C589 731.667 571.636 749 550 749C528.364 749 511 731.667 511 710.5C511 689.333 528.364 672 550 672C571.636 672 589 689.333 589 710.5Z" stroke="#DD014B" stroke-width="20"/>
<path d="M190 344C232.503 382.112 260.072 383.217 302 344" stroke="white" stroke-width="20" stroke-linecap="round" stroke-linejoin="round"/>
<circle cx="178.5" cy="265.5" r="33" fill="white" stroke="white"/>
<circle cx="315.5" cy="265.5" r="33" fill="white" stroke="white"/>
<path d="M445 677.5L495 726" stroke="#DD014B" stroke-width="20" stroke-linecap="round" stroke-linejoin="round"/>
<path d="M486 575L535.371 634.803V579.672H630V719.835C611.867 753.163 558.229 799.822 488.743 719.835" stroke="#DD014B" stroke-width="20" stroke-linecap="round" stroke-linejoin="round"/>
<path d="M536 553V513H630V553H536Z" stroke="white" stroke-width="21" stroke-linecap="round" stroke-linejoin="round"/>
<path fill-rule="evenodd" clip-rule="evenodd" d="M130 155H367C383.569 155 397 168.431 397 185V206V216.247V236.415V359.585V377C397 377.921 396.975 378.837 396.926 379.746C396.951 379.748 396.975 379.751 397 379.753V397C397 413.569 383.569 427 367 427H347H150H130C113.431 427 100 413.569 100 397V379.644C100.023 379.641 100.046 379.638 100.068 379.635C100.023 378.763 100 377.884 100 377V359.4V236.6V216.356V206V185C100 168.431 113.431 155 130 155ZM417 185V216.158C442.744 218.195 463 239.732 463 266V330C463 356.268 442.744 377.805 417 379.842V397C417 424.614 394.614 447 367 447H130C102.386 447 80 424.614 80 397V379.911C53.7825 378.36 33 356.607 33 330V266C33 239.393 53.7825 217.64 80 216.089V185C80 157.386 102.386 135 130 135H367C394.614 135 417 157.386 417 185ZM417 236.264V359.736C431.677 357.78 443 345.212 443 330V266C443 250.788 431.677 238.22 417 236.264ZM80 359.852C64.84 358.347 53 345.556 53 330V266C53 250.444 64.84 237.653 80 236.148V359.852Z" fill="#DD014B"/>
<path d="M583.931 32.2667C579.105 33.5924 576.386 39.0137 577.858 44.3757C577.881 44.4582 577.919 44.5325 577.944 44.6132C578.136 45.3442 578.343 46.2315 578.54 46.859C579.504 49.9203 580.828 52.1027 582.017 54.8407C584.426 60.7372 586.429 65.6239 587.34 70.427C587.457 72.3002 586.597 74.279 585.742 75.7247L586.552 79.4786C581.356 81.3758 576.3 83.6361 571.422 86.2428C550.145 97.6251 533.818 114.677 523.277 134.541C522.014 134.1 520.757 133.642 519.506 133.167C518.004 133.806 516.559 134.721 514.176 134.088C509.543 132.529 504.983 129.874 499.472 126.68C496.922 125.128 494.945 123.527 492.044 122.153C491.386 121.84 490.402 121.444 489.677 121.136C487.441 120.177 485.068 120.008 482.959 120.511C480.247 121.156 477.95 122.917 476.84 125.504C474.867 130.103 477.414 135.606 482.524 137.798C482.577 137.82 482.629 137.834 482.682 137.856C483.385 138.164 484.255 138.569 484.892 138.815C487.887 139.97 490.42 140.286 493.301 141.065C499.413 142.857 504.481 144.343 508.804 146.627C510.538 147.689 511.465 150.146 511.943 151.187L515.431 152.92C506.632 179.601 507.346 209.379 519.244 236.652L515.876 238.721C515.253 240.232 514.428 242.566 513.163 243.542C509.055 246.193 504.138 248.102 498.204 250.42C495.402 251.446 492.888 251.983 490.005 253.394C489.37 253.704 488.505 254.203 487.819 254.576L487.75 254.616C487.712 254.636 487.666 254.67 487.629 254.689C482.82 257.347 480.812 262.99 483.157 267.362C485.504 271.735 491.314 273.191 496.189 270.652C496.224 270.633 496.278 270.616 496.315 270.597C496.369 270.568 496.413 270.525 496.467 270.495C497.146 270.138 498.003 269.714 498.588 269.371C501.358 267.749 503.2 265.979 505.605 264.211C510.818 260.55 515.131 257.503 519.612 255.546C521.518 254.859 523.943 255.65 525.122 255.941L528.751 254.242C544.979 279.012 569.38 295.935 596.426 303.332L595.884 307.577C596.862 308.899 598.043 310.727 598.017 312.305C597.529 317.169 595.898 322.609 594.011 328.693C593.066 331.524 591.936 333.83 591.241 336.964C591.075 337.714 590.911 338.841 590.767 339.624C589.84 345.046 593.008 350.128 597.892 351.021C602.808 351.919 607.591 348.235 608.601 342.78C608.603 342.772 608.613 342.764 608.615 342.756C608.616 342.75 608.609 342.743 608.61 342.738C608.755 341.964 608.979 340.937 609.082 340.218C609.542 337.041 609.287 334.498 609.404 331.515C610.122 325.072 609.719 318.63 611.859 313.959C612.446 312.679 613.756 311.889 615.122 311.09L616.116 306.962C638.533 309.178 661.805 305.035 683.066 293.661C687.844 291.103 692.44 288.218 696.82 285.025C697.647 285.859 699.202 287.473 699.61 287.874C701.241 287.95 702.944 287.753 704.816 289.356C708.314 292.771 711.264 297.137 714.845 302.406C716.469 304.91 717.567 307.223 719.583 309.719C720.043 310.288 720.761 311.07 721.282 311.662C724.935 315.854 730.949 316.582 734.721 313.294C738.465 310.032 738.595 304.045 735.029 299.856C734.504 299.256 733.769 298.376 733.243 297.816C731.046 295.477 728.902 294.089 726.644 292.139C721.915 287.871 717.99 284.325 715.085 280.392C713.753 278.318 714.195 276.68 714.343 275.054C713.908 274.765 712.612 272.818 711.918 271.925C732.173 251.014 743.748 223.333 744.897 194.718C746.077 194.586 748.137 194.394 748.811 194.347C749.887 193.119 750.785 191.656 753.206 191.192C758.057 190.586 763.322 191.004 769.673 191.49C772.643 191.782 775.137 192.383 778.346 192.362C779.024 192.358 779.973 192.267 780.739 192.227C780.8 192.225 780.86 192.24 780.922 192.237C780.964 192.235 781.018 192.221 781.058 192.22C786.546 191.912 790.799 187.695 790.583 182.737C790.366 177.78 785.759 173.953 780.266 174.124C779.47 174.159 778.328 174.162 777.563 174.224C774.364 174.483 771.928 175.304 768.994 175.854C762.709 176.89 757.505 177.759 752.62 177.578C750.592 177.37 748.689 175.546 747.808 174.823L743.997 174.765C742.192 161.024 737.916 147.383 730.965 134.467C723.949 121.432 714.809 110.258 704.198 101.114C704.877 100.042 706.171 98.0595 706.533 97.4807C706.245 95.8739 705.672 94.2634 706.818 92.0814C709.369 87.9114 712.967 84.0454 717.307 79.3826C719.388 77.2417 721.423 75.6716 723.407 73.1495C723.856 72.579 724.445 71.7094 724.906 71.0713C728.179 66.5769 727.561 60.5445 723.515 57.5981C719.47 54.6516 713.54 55.8967 710.266 60.392C709.799 61.0284 709.159 61.8673 708.75 62.4751C706.958 65.1376 706.056 67.5288 704.656 70.1653C701.549 75.7259 698.989 80.356 695.801 84.0624C694.377 85.5136 691.802 85.8545 690.657 86.0968L687.985 89.3808C663.575 74.7107 634.282 69.0891 605.819 74.2492C605.422 73.106 604.742 71.0294 604.542 70.4026C603.106 69.6269 601.477 69.0749 600.486 66.8179C598.816 62.2233 598.062 56.9934 597.123 50.6933C596.747 47.7322 596.77 45.1805 596.036 42.0555C595.87 41.3455 595.548 40.3365 595.336 39.5772C593.863 34.2152 588.758 30.9417 583.931 32.2667ZM591.599 103.053L601.589 149.606L601.428 149.751C602.38 153.9 599.903 158.101 595.76 159.239C594.063 159.705 592.346 159.59 590.817 159.01L590.753 159.067L545.849 142.741C554.283 128.211 566.754 115.758 582.722 107.217C585.608 105.678 588.57 104.288 591.599 103.053ZM613.502 97.0392C634.055 94.0258 654.913 97.9805 672.791 107.91L642.715 144.64L642.569 144.621C639.919 147.951 635.084 148.633 631.611 146.103C630.24 145.113 629.222 143.711 628.705 142.101L628.662 142.093L613.502 97.0392ZM536.92 163.607L579.668 184.882L579.682 185.079C583.519 186.921 585.258 191.469 583.565 195.418C582.897 196.977 581.751 198.284 580.291 199.148L580.295 199.307L539.789 224.083C531.928 204.224 531.289 182.997 536.92 163.607ZM691.179 121.274C698.547 128.139 704.943 136.311 709.99 145.688C714.976 154.952 718.256 164.666 719.938 174.462L672.225 173.867L672.137 173.691C667.88 173.696 664.34 170.337 664.153 166.044C664.076 164.356 664.539 162.688 665.477 161.282L665.433 161.194L691.179 121.275L691.179 121.274ZM616.208 177.4L630.267 173.539L642.006 182.064L642.611 196.556L631.655 206.09L617.323 203.479L610.444 190.709L616.208 177.4ZM671.547 202.407C672.136 202.213 672.746 202.103 673.357 202.051L673.406 201.936L721.023 197.136C719.5 217.675 711.206 237.382 697.158 252.905L667.779 215.088L667.814 214.998C665.157 211.673 665.567 206.805 668.806 203.982C669.636 203.26 670.564 202.731 671.547 202.407ZM595.171 223.576C598.657 222.672 602.433 224.227 604.211 227.541C605.043 229.092 605.309 230.782 605.084 232.401L605.26 232.533L599.379 279.569C580.16 273.57 562.834 261.443 550.583 244.091L593.594 224.05L593.695 224.122C594.173 223.891 594.673 223.706 595.171 223.576ZM638.362 231.618C639.596 231.233 640.905 231.156 642.176 231.394C643.908 231.711 645.408 232.546 646.533 233.732L646.7 233.686L679.973 267.763C677.321 269.541 674.582 271.184 671.766 272.687C655.818 281.219 638.542 284.703 621.754 283.687L632.926 237.488L632.963 237.478C633.273 236.114 633.934 234.856 634.881 233.828C635.828 232.8 637.029 232.038 638.362 231.618L638.362 231.618Z" fill="white"/>
<path fill-rule="evenodd" clip-rule="evenodd" d="M244.75 577.683L177.298 596.223L241.355 770.375C243.356 775.818 240.567 781.852 235.125 783.854C229.682 785.856 223.647 783.067 221.645 777.624L153.645 592.75C152.631 589.993 152.819 586.936 154.163 584.323C155.507 581.71 157.884 579.78 160.717 579.001L241.217 556.875C242.4 556.55 243.592 556.441 244.75 556.524C245.908 556.441 247.1 556.55 248.283 556.875L328.783 579.001C331.616 579.78 333.993 581.71 335.337 584.323C336.681 586.936 336.869 589.993 335.855 592.75L267.855 777.624C265.853 783.067 259.818 785.856 254.375 783.854C248.933 781.852 246.144 775.818 248.145 770.375L312.202 596.223L244.75 577.683Z" fill="#DD014B"/>
<path d="M352 501H422C433.046 501 442 509.954 442 521V531M241.5 777H422C433.046 777 442 768.046 442 757V601.5" stroke="#DD014B" stroke-width="20" stroke-linejoin="round"/>
<path d="M130.5 501H67C55.9543 501 47 509.954 47 521V757C47 768.046 55.9543 777 67 777H242" stroke="#DD014B" stroke-width="20" stroke-linejoin="round"/>
<path d="M184.5 447V473.007V482.531L138 464.582V547L246 516.231" stroke="white" stroke-width="20" stroke-linejoin="round"/>
<path d="M300.931 447V473.007V482.531L347 464.582V547L240 516.231" stroke="white" stroke-width="20" stroke-linejoin="round"/>
</g>
<defs>
<clipPath id="clip0_44_244">
<rect width="820" height="810" fill="white"/>
</clipPath>
</defs>
</svg>
